# xmcd CD database file
#
# Track frame offsets:
#	150
#	38388
#	90316
#	121529
#	172950
#	206062
#	259677
#
# Disc length: 3875 seconds
#
# Revision: 1
# Processed by: cddbd v1.5.2PL0 Copyright (c) Steve Scherf et al.
# Submitted via: CDex 1.77
#
DISCID=470f2107
DTITLE=Solitudes - Natural Meditation
DYEAR=2000
DGENRE=New Age
TTITLE0=Natural Meditation
TTITLE1=Meditation On Water
TTITLE2=Meditation On birds
TTITLE3=Meditation On The Flute
TTITLE4=Meditation On The Forest
TTITLE5=Meditation On Music
TTITLE6=Data
EXTD=YEAR: 2000
EXTT0=
EXTT1=
EXTT2=
EXTT3=
EXTT4=
EXTT5=
EXTT6=
PLAYORDER=
